<?xml version="1.0" encoding="UTF-8"?>
<svg version="1.1" xmlns="http://www.w3.org/2000/svg" width="1380" height="752">
<path d="M0 0 C455.4 0 910.8 0 1380 0 C1380 248.16 1380 496.32 1380 752 C924.6 752 469.2 752 0 752 C0 503.84 0 255.68 0 0 Z " fill="#FAFEFE" transform="translate(0,0)"/>
<path d="M0 0 C-0.57765592 10.58589172 -1.64666837 21.02424634 -3.03125 31.53125 C-3.2295974 33.06240883 -3.42754648 34.59361931 -3.62512207 36.12487793 C-4.14012136 40.10755719 -4.66067766 44.0894902 -5.18243408 48.07128906 C-5.71250022 52.12517949 -6.23673074 56.17982444 -6.76171875 60.234375 C-7.53043494 66.16247091 -8.30057055 72.09037875 -9.07617188 78.01757812 C-9.23081909 79.20033325 -9.38546631 80.38308838 -9.5447998 81.60168457 C-10.00949509 85.07088601 -10.49989986 88.53574025 -11 92 C-14.54923911 90.43269582 -17.27202766 88.28421705 -20.25 85.8125 C-21.21292969 85.01585937 -22.17585937 84.21921875 -23.16796875 83.3984375 C-26.3165788 80.73189051 -29.40024739 78.00309959 -32.44140625 75.21484375 C-33.93355065 73.79507954 -33.93355065 73.79507954 -36 74 C-37.35097374 75.51151546 -38.62927345 77.08813313 -39.875 78.6875 C-43.91179076 83.73999941 -48.14909827 88.51651472 -52.57373047 93.23120117 C-55.23117822 96.06735029 -57.82823359 98.93916273 -60.37109375 101.87890625 C-79.61738832 123.9600284 -101.77682985 141.56460007 -130.00268555 150.35913086 C-131.36243349 150.79542695 -132.7130179 151.26112066 -134.05395508 151.75219727 C-140.44440568 154.06028191 -146.85152965 155.10119619 -153.5625 156.0625 C-154.71202148 156.23386475 -155.86154297 156.40522949 -157.04589844 156.58178711 C-163.27114248 157.49929742 -169.50039032 158.331718 -175.75 159.0625 C-197.07213218 161.65784872 -216.7845467 168.51178894 -233 183 C-233.88300781 183.76570312 -234.76601563 184.53140625 -235.67578125 185.3203125 C-248.25785353 196.95917427 -255.72338259 212.27632362 -262 228 C-262.33 228 -262.66 228 -263 228 C-263.73713619 217.11917637 -264.1436438 206.30228473 -264.11352539 195.39233398 C-264.11321787 193.89843022 -264.11335455 192.4045263 -264.11389065 190.9106226 C-264.11411316 186.96885727 -264.10838694 183.02712332 -264.10128021 179.0853653 C-264.09551551 175.36424173 -264.09531335 171.64312517 -264.09460449 167.92199707 C-264.08939126 157.09382735 -264.07543004 146.26566326 -264.0625 135.4375 C-264.041875 111.203125 -264.02125 86.96875 -264 62 C-209.55 62 -155.1 62 -99 62 C-101.0341957 66.0683914 -103.48344892 68.92797253 -106.5625 72.1875 C-107.37485107 73.05242065 -107.37485107 73.05242065 -108.20361328 73.93481445 C-109.29645057 75.09435907 -110.39179423 76.25154711 -111.48974609 77.40625 C-112.77212699 78.75952878 -114.03826725 80.12816815 -115.30078125 81.5 C-129.11005302 96.06345045 -149.53316043 108.18626065 -169.96098328 109.08641052 C-172.20124931 109.1151089 -174.43928873 109.11251224 -176.6796875 109.09765625 C-177.49245148 109.0962413 -178.30521545 109.09482635 -179.14260864 109.09336853 C-181.72011101 109.08780335 -184.2975242 109.0752574 -186.875 109.0625 C-188.63020707 109.0574805 -190.38541552 109.05291838 -192.140625 109.04882812 C-196.42714473 109.0386993 -200.71347338 109.01911731 -205 109 C-205 116.59 -205 124.18 -205 132 C-203.20949219 131.26007813 -201.41898438 130.52015625 -199.57421875 129.7578125 C-191.48881092 126.64896717 -183.25466449 124.74774995 -174.8125 122.875 C-148.25325009 116.89851915 -126.64629129 108.2650946 -107 89 C-105.98292969 88.02353516 -105.98292969 88.02353516 -104.9453125 87.02734375 C-101.4828954 83.64956351 -98.2942106 80.08685286 -95.140625 76.421875 C-92.36602031 73.28272371 -89.49249962 70.24161729 -86.625 67.1875 C-81.78738678 62.02395814 -77.20810839 56.7486949 -72.8046875 51.20703125 C-71 49 -71 49 -69.2578125 47.32421875 C-67.77043558 46.06271164 -67.77043558 46.06271164 -68 44 C-69.57286684 42.58561594 -71.21139996 41.24395599 -72.875 39.9375 C-76.88731493 36.72140321 -80.83361296 33.46979927 -84.6875 30.0625 C-85.51636719 29.33160156 -86.34523438 28.60070312 -87.19921875 27.84765625 C-89 26 -89 26 -89 24 C-73.90394904 19.16806321 -58.59442007 14.99706389 -43.2734375 10.9453125 C-42.62553253 10.77394775 -41.97762756 10.60258301 -41.31008911 10.42602539 C-38.06662305 9.56877934 -34.82276406 8.71305134 -31.57861328 7.85839844 C-23.60928914 5.74338628 -15.74217253 3.45888567 -7.93359375 0.8125 C-5.10302024 0.0285329 -2.90995102 -0.06378647 0 0 Z " fill="#4CB191" transform="translate(827,205)"/>
<path d="M0 0 C0 20.46 0 40.92 0 62 C-37.29 62 -74.58 62 -113 62 C-113 105.89 -113 149.78 -113 195 C-131.81 195 -150.62 195 -170 195 C-170.16043524 173.67993957 -170.16043524 173.67993957 -170.1953125 164.5 C-170.21910269 158.2680883 -170.24705896 152.03641458 -170.30175781 145.8046875 C-170.34563932 140.7731162 -170.36922519 135.74180058 -170.37950897 130.71005249 C-170.38682522 128.80296817 -170.40110884 126.89589574 -170.42292023 124.98892212 C-170.71949123 97.95199299 -162.12918246 73.13811904 -143.29296875 53.296875 C-142.53628906 52.53890625 -141.77960937 51.7809375 -141 51 C-140.25363281 50.24203125 -139.50726562 49.4840625 -138.73828125 48.703125 C-119.48288053 30.243402 -94.60686921 24.91822906 -68.97079468 21.90533447 C-54.87526918 20.22084702 -41.29566485 18.19844582 -28 13 C-26.91404541 12.57799316 -26.91404541 12.57799316 -25.80615234 12.14746094 C-18.10201431 9.08768568 -10.79047549 5.59110528 -3.8203125 1.06640625 C-2 0 -2 0 0 0 Z " fill="#0E1E35" transform="translate(734,352)"/>
<path d="M0 0 C53.79 0 107.58 0 163 0 C161.06543925 3.8691215 158.85210439 6.58487262 155.9375 9.6875 C155.44290283 10.21714355 154.94830566 10.74678711 154.4387207 11.29248047 C153.43248953 12.36559937 152.42363922 13.43626874 151.41210938 14.50439453 C150.18540384 15.80363348 148.97409466 17.11737592 147.765625 18.43359375 C133.92330991 33.03047113 113.48568777 45.20124181 93.00019836 46.08641052 C90.69997442 46.11515746 88.40191675 46.11249286 86.1015625 46.09765625 C85.26660248 46.0962413 84.43164246 46.09482635 83.57138062 46.09336853 C80.92254958 46.08780174 78.2738052 46.07525547 75.625 46.0625 C73.82161581 46.0574807 72.01823029 46.05291855 70.21484375 46.04882812 C65.80983614 46.03869701 61.4050143 46.0191153 57 46 C57 53.92 57 61.84 57 70 C53.3803125 71.9490625 53.3803125 71.9490625 49.6875 73.9375 C42.46696523 77.93758092 36.12665279 82.43671758 30 88 C29.30777344 88.59941406 28.61554687 89.19882812 27.90234375 89.81640625 C16.20663327 100.58204035 9.04698745 115.28742748 4.25 130.1875 C4.03883545 130.84097412 3.8276709 131.49444824 3.61010742 132.16772461 C2.19889127 136.76765175 1.48987194 141.21309924 1 146 C0.67 146 0.34 146 0 146 C0 97.82 0 49.64 0 0 Z " fill="#0E1E36" transform="translate(564,268)"/>
<path d="M0 0 C53.79 0 107.58 0 163 0 C162.34 1.32 161.68 2.64 161 4 C160.01 3.505 160.01 3.505 159 3 C156.93510724 2.8938746 154.86674973 2.85332316 152.79916382 2.84178162 C151.83492396 2.83437465 151.83492396 2.83437465 150.85120451 2.82681805 C148.6877523 2.81140628 146.52432984 2.80307253 144.36083984 2.79467773 C142.8137638 2.78510209 141.26669039 2.7750922 139.71961975 2.76467896 C135.51121153 2.73758976 131.30279204 2.71660197 127.09434462 2.69667697 C122.69940089 2.67484213 118.30449203 2.64744123 113.90957642 2.62062073 C105.58336817 2.57065993 97.2571406 2.52573369 88.93089449 2.48259836 C79.45337546 2.4332549 69.9758914 2.37832607 60.49840617 2.32291877 C40.99896991 2.20904675 21.49950065 2.1022191 2 2 C2.00699732 2.66923115 2.01399464 3.3384623 2.02120399 4.02797318 C2.19118839 20.35529457 2.34942146 36.68268404 2.49477577 53.01024246 C2.56534937 60.90630971 2.63981569 68.8023035 2.72363281 76.69824219 C2.7967268 83.58496441 2.86232674 90.47171155 2.91914403 97.35858798 C2.94944967 101.00093222 2.98336062 104.64315806 3.02626419 108.2853775 C3.07416388 112.36370672 3.10532209 116.44200709 3.13525391 120.52050781 C3.1517952 121.71166199 3.16833649 122.90281616 3.18537903 124.13006592 C3.22301313 131.61834978 2.47691176 138.65848899 1 146 C0.67 146 0.34 146 0 146 C0 97.82 0 49.64 0 0 Z " fill="#101625" transform="translate(564,268)"/>
<path d="M0 0 C54.45 0 108.9 0 165 0 C164.67 0.66 164.34 1.32 164 2 C83.315 1.505 83.315 1.505 1 1 C1.33 46.54 1.66 92.08 2 139 C2.66 136.36 3.32 133.72 4 131 C6 133 6 133 6.04345703 134.97119141 C5.94919434 135.75671387 5.85493164 136.54223633 5.7578125 137.3515625 C5.66113281 138.20234375 5.56445312 139.053125 5.46484375 139.9296875 C5.35269531 140.81914062 5.24054687 141.70859375 5.125 142.625 C5.02058594 143.5221875 4.91617188 144.419375 4.80859375 145.34375 C4.54879548 147.5638443 4.27888059 149.78223534 4 152 C4.33 151.67 4.66 151.34 5 151 C5.99 150.01 5.99 150.01 7 149 C7.6425235 146.93125966 7.6425235 146.93125966 8 145 C8.66 145 9.32 145 10 145 C10.226875 144.360625 10.45375 143.72125 10.6875 143.0625 C13.18462219 137.23588155 15.93608049 131.01621202 21 127 C21.66 127 22.32 127 23 127 C23 126.34 23 125.68 23 125 C23.66 125 24.32 125 25 125 C25.33 123.68 25.66 122.36 26 121 C26.66 121 27.32 121 28 121 C28.495 119.515 28.495 119.515 29 118 C32 116 32 116 34.1875 116.375 C34.785625 116.58125 35.38375 116.7875 36 117 C35.5153125 117.4125 35.030625 117.825 34.53125 118.25 C32.33318151 120.14372054 30.16742977 122.07132325 28 124 C27.36449219 124.53238281 26.72898437 125.06476563 26.07421875 125.61328125 C14.47288134 136.06169072 7.6878581 151.75123602 2 166 C1.67 166 1.34 166 1 166 C0.26286381 155.11917637 -0.1436438 144.30228473 -0.11352539 133.39233398 C-0.11321787 131.89843022 -0.11335455 130.4045263 -0.11389065 128.9106226 C-0.11411316 124.96885727 -0.10838694 121.02712332 -0.10128021 117.0853653 C-0.09551551 113.36424173 -0.09531335 109.64312517 -0.09460449 105.92199707 C-0.08939126 95.09382735 -0.07543004 84.26566326 -0.0625 73.4375 C-0.041875 49.203125 -0.02125 24.96875 0 0 Z " fill="#7F8F8A" transform="translate(563,267)"/>
<path d="M0 0 C0.33 0 0.66 0 1 0 C1 19.47 1 38.94 1 59 C-35.96 59 -72.92 59 -111 59 C-111 58.67 -111 58.34 -111 58 C-105.5623014 56.86465363 -100.29758716 56.86558282 -94.77197266 56.88647461 C-93.75672516 56.88632858 -92.74147766 56.88618256 -91.69546509 56.8860321 C-88.35164222 56.88672679 -85.00787559 56.89449839 -81.6640625 56.90234375 C-79.34093252 56.90420951 -77.01780215 56.90563267 -74.69467163 56.90663147 C-68.58895781 56.91044422 -62.48326788 56.92026391 -56.37756348 56.93133545 C-49.04702752 56.94337774 -41.71648357 56.94795772 -34.38594055 56.95378876 C-23.2572771 56.96347631 -12.12866605 56.9826416 -1 57 C-0.67 38.19 -0.34 19.38 0 0 Z " fill="#0D1726" transform="translate(733,355)"/>
<path d="M0 0 C-0.57765592 10.58589172 -1.64666837 21.02424634 -3.03125 31.53125 C-3.2295974 33.06240883 -3.42754648 34.59361931 -3.62512207 36.12487793 C-4.14012136 40.10755719 -4.66067766 44.0894902 -5.18243408 48.07128906 C-5.71250022 52.12517949 -6.23673074 56.17982444 -6.76171875 60.234375 C-7.53043494 66.16247091 -8.30057055 72.09037875 -9.07617188 78.01757812 C-9.3081427 79.79171082 -9.3081427 79.79171082 -9.5447998 81.60168457 C-10.00949509 85.07088601 -10.49989986 88.53574025 -11 92 C-11.66 92 -12.32 92 -13 92 C-13.38218767 90.34385343 -13.71395102 88.67542976 -14 87 C-13.505 86.505 -13.505 86.505 -13 86 C-12.79016721 83.85795689 -12.63176615 81.71075887 -12.5 79.5625 C-12.11013767 73.22027534 -12.11013767 73.22027534 -11 71 C-10.95488245 69.63884967 -10.96283241 68.27565647 -11.00146484 66.91430664 C-11.05046349 62.31468773 -10.61501479 57.92012092 -9.9765625 53.37109375 C-9.81720718 52.18194115 -9.81720718 52.18194115 -9.65463257 50.96876526 C-9.31696892 48.4575556 -8.97127858 45.9475347 -8.625 43.4375 C-8.28888215 40.96105942 -7.95444626 38.48439533 -7.62005615 36.00772095 C-7.40062297 34.38406513 -7.18045712 32.76050816 -6.95953369 31.13705444 C-5.91342183 23.43195154 -4.94593577 15.71800631 -4 8 C-3.34 8 -2.68 8 -2 8 C-2.66 6.68 -3.32 5.36 -4 4 C-5.65 4 -7.3 4 -9 4 C-9 3.34 -9 2.68 -9 2 C-5.83390538 0.12379578 -3.64167599 -0.09662822 0 0 Z " fill="#3C9F95" transform="translate(827,205)"/>
<path d="M0 0 C0.33 0 0.66 0 1 0 C1 7.59 1 15.18 1 23 C3.97 22.01 6.94 21.02 10 20 C6.93288774 23.73387579 3.62369934 25.18326445 -0.7109375 27.01171875 C-18.51897406 34.70017139 -33.72425558 49.14726667 -43 66 C-43.57234375 67.03833984 -43.57234375 67.03833984 -44.15625 68.09765625 C-46.67231984 72.89153173 -48.4198343 77.82854861 -50 83 C-50.66 83 -51.32 83 -52 83 C-51.4827205 77.44642979 -50.04418551 73.25434725 -47.5 68.3125 C-46.96705322 67.26811768 -46.96705322 67.26811768 -46.42333984 66.20263672 C-36.42710224 47.18316937 -20.88448284 33.83068806 -2 24 C-1.34 24 -0.68 24 0 24 C0 16.08 0 8.16 0 0 Z " fill="#79B28D" transform="translate(621,314)"/>
<path d="M0 0 C0.66 0.66 1.32 1.32 2 2 C1.98768616 4.40995789 1.98768616 4.40995789 1.64477539 7.5065918 C1.14845713 12.83634048 0.86725153 18.10447166 0.79467773 23.45239258 C0.78432023 24.20266063 0.77396273 24.95292868 0.76329136 25.72593212 C0.73355086 28.11543932 0.70849475 30.50496915 0.68359375 32.89453125 C0.662968 34.57989444 0.64197031 36.26525312 0.62062073 37.9506073 C0.56597938 42.34148451 0.51631991 46.73240379 0.46777344 51.12335205 C0.40819244 56.4158503 0.34229014 61.70827332 0.27747345 67.00070953 C0.1801953 75.00042627 0.09084097 83.00019594 0 91 C17.82 91 35.64 91 54 91 C54 91.33 54 91.66 54 92 C35.85 92 17.7 92 -1 92 C-1.32978354 70.77798333 -1.32978354 70.77798333 -1.453125 61.72265625 C-1.53730214 55.54693059 -1.62373224 49.37129471 -1.72363281 43.19580078 C-1.80404425 38.21627124 -1.87430635 33.2366919 -1.93757248 28.25691605 C-1.96346984 26.35830038 -1.9930066 24.45973071 -2.02626419 22.56122971 C-2.07226804 19.89941181 -2.10525815 17.23772343 -2.13525391 14.57568359 C-2.1517952 13.79309174 -2.16833649 13.01049988 -2.18537903 12.20419312 C-2.21996703 7.73560825 -1.66963842 4.14909593 0 0 Z " fill="#1C2839" transform="translate(566,453)"/>
<path d="M0 0 C0 0.33 0 0.66 0 1 C-25.07850674 4.94435305 -25.07850674 4.94435305 -34.75 6.0625 C-54.22991617 8.43361257 -70.27928333 14.85691819 -87 25 C-87 24.01 -87 23.02 -87 22 C-75.67144568 12.72391317 -56.70176589 5.03140746 -42.25390625 4.17578125 C-39.9631258 4.04361517 -39.9631258 4.04361517 -37.60546875 3.51171875 C-33.61667112 2.72831172 -29.59742139 2.55787268 -25.546875 2.28125 C-23.06769856 2.27610548 -23.06769856 2.27610548 -22 1 C-19.71195833 0.78933632 -17.41896178 0.63135159 -15.125 0.5 C-1.22900904 -0.29894815 -1.22900904 -0.29894815 0 0 Z " fill="#70B392" transform="translate(686,358)"/>
<path d="M0 0 C0.66 0.33 1.32 0.66 2 1 C0.49993609 4.44779086 -1.50409262 6.82360533 -4.0625 9.5625 C-7.24004158 12.96988184 -10.18882212 16.47561103 -13.09765625 20.1171875 C-17.72092161 25.79826593 -22.70743256 30.98079836 -27.91357422 36.11938477 C-29.40018411 37.58736857 -30.87826644 39.06357075 -32.35546875 40.54101562 C-39.55470175 47.7031345 -39.55470175 47.7031345 -43 50 C-45.1875 49.625 -45.1875 49.625 -47 49 C-46.34 49 -45.68 49 -45 49 C-45 48.34 -45 47.68 -45 47 C-42.75223108 44.27901657 -39.99676273 42.79805764 -37 41 C-36.443125 40.443125 -35.88625 39.88625 -35.3125 39.3125 C-34.879375 38.879375 -34.44625 38.44625 -34 38 C-33.34 38 -32.68 38 -32 38 C-31.67 36.68 -31.34 35.36 -31 34 C-29.02 33.505 -29.02 33.505 -27 33 C-27 32.01 -27 31.02 -27 30 C-26.34 30 -25.68 30 -25 30 C-25 29.34 -25 28.68 -25 28 C-24.26910156 27.4225 -23.53820312 26.845 -22.78515625 26.25 C-19.71922077 23.77317134 -17.73392278 21.195023 -15.4375 18 C-10.35005204 10.94634598 -10.35005204 10.94634598 -7 8 C-6.34 8 -5.68 8 -5 8 C-4.34 6.35 -3.68 4.7 -3 3 C-2.34 3 -1.68 3 -1 3 C-0.67 2.01 -0.34 1.02 0 0 Z " fill="#3D9B8D" transform="translate(786,280)"/>
<path d="M0 0 C1 3 1 3 -0.12109375 5.40234375 C-2.17973775 8.24849397 -4.384591 10.29475673 -7.0625 12.5625 C-10.25288282 15.26565842 -12.20532588 17.26797892 -14 21 C-15.8046875 22.78125 -15.8046875 22.78125 -17.875 24.5 C-20.01422241 26.30892954 -22.08065058 28.08065058 -24.0625 30.0625 C-28.30413476 34.30413476 -32.71340048 38.11640026 -38 41 C-38.66 40.34 -39.32 39.68 -40 39 C-39.36835937 38.58492188 -38.73671875 38.16984375 -38.0859375 37.7421875 C-26.55900959 29.80289133 -17.01610507 19.6473808 -8 9 C-6.52460697 7.32999185 -5.04535971 5.66338176 -3.5625 4 C-2.88316406 3.236875 -2.20382812 2.47375 -1.50390625 1.6875 C-1.00761719 1.130625 -0.51132812 0.57375 0 0 Z " fill="#6DB898" transform="translate(742,270)"/>
<path d="M0 0 C4.52426783 6.78640174 1.63705553 16.95243613 0.5 24.625 C0.35691406 25.62917969 0.21382812 26.63335937 0.06640625 27.66796875 C-0.28287565 30.11294208 -0.63842724 32.55681951 -1 35 C-1.66 35 -2.32 35 -3 35 C-3.38218767 33.34385343 -3.71395102 31.67542976 -4 30 C-3.67 29.67 -3.34 29.34 -3 29 C-2.79016721 26.85795689 -2.63176615 24.71075887 -2.5 22.5625 C-2.11013767 16.22027534 -2.11013767 16.22027534 -1 14 C-0.95483567 12.56320968 -0.96135851 11.12448054 -1 9.6875 C-1.043568 6.31098014 -0.84918868 3.29060612 0 0 Z " fill="#3B9B8F" transform="translate(817,262)"/>
<path d="M0 0 C0.33 0 0.66 0 1 0 C1.02684679 2.64590014 1.04676357 5.29153096 1.0625 7.9375 C1.07087891 8.69224609 1.07925781 9.44699219 1.08789062 10.22460938 C1.09652441 12.14994313 1.05224333 14.07535581 1 16 C0.67 16.33 0.34 16.66 0 17 C-0.16189294 19.77316615 -0.27939793 22.53697413 -0.375 25.3125 C-0.69794821 32.84596011 -1.74606084 39.77038383 -4 47 C-4.33 47 -4.66 47 -5 47 C-4.48871129 31.22674321 -2.11720614 15.61936093 0 0 Z " fill="#C7EEEC" transform="translate(826,211)"/>
<path d="M0 0 C-5.47258968 4.74122977 -11.13464288 8.90577196 -17.375 12.5625 C-18.26662842 13.10003906 -18.26662842 13.10003906 -19.17626953 13.6484375 C-23.4258523 16.06782004 -23.4258523 16.06782004 -26.4140625 15.71484375 C-26.93742188 15.47894531 -27.46078125 15.24304688 -28 15 C-27.34 15 -26.68 15 -26 15 C-25.67 14.01 -25.34 13.02 -25 12 C-23.35954024 11.27122432 -21.68677145 10.61402304 -20 10 C-18.27323971 9.01065558 -16.56463145 7.98899847 -14.875 6.9375 C-12.19748052 5.27320598 -10.00027598 4.00009199 -7 3 C-7 2.34 -7 1.68 -7 1 C-3.375 -1.125 -3.375 -1.125 0 0 Z " fill="#49A08F" transform="translate(740,332)"/>
<path d="M0 0 C0.33 0 0.66 0 1 0 C1 7.59 1 15.18 1 23 C3.97 22.01 6.94 21.02 10 20 C6.94140478 23.72350723 3.64835686 25.18270711 -0.68359375 26.98828125 C-2.84864847 27.93389537 -4.84041007 28.99093649 -6.875 30.1875 C-10 32 -10 32 -13 33 C-11.56356879 29.34646845 -9.94164969 28.06021834 -6.5 26.25 C-5.7059375 25.82203125 -4.911875 25.3940625 -4.09375 24.953125 C-2 24 -2 24 0 24 C0 16.08 0 8.16 0 0 Z " fill="#79A190" transform="translate(621,314)"/>
<path d="M0 0 C0.66 0.99 1.32 1.98 2 3 C1.06894211 3.98529428 0.12987519 4.96302444 -0.8125 5.9375 C-1.33457031 6.48277344 -1.85664062 7.02804687 -2.39453125 7.58984375 C-4 9 -4 9 -7 10 C-7.21462891 10.90492188 -7.21462891 10.90492188 -7.43359375 11.828125 C-8.20744046 14.79542687 -9.72370053 15.81956234 -12.0625 17.75 C-13.16271484 18.67039062 -13.16271484 18.67039062 -14.28515625 19.609375 C-14.85105469 20.06828125 -15.41695312 20.5271875 -16 21 C-16.66 20.67 -17.32 20.34 -18 20 C-12.49706701 12.77547904 -6.53935341 6.29814775 0 0 Z " fill="#192331" transform="translate(599,397)"/>
<path d="M0 0 C1.32 0.66 2.64 1.32 4 2 C3.319375 2.515625 2.63875 3.03125 1.9375 3.5625 C-3.64219265 8.19245773 -8.06178403 12.88897522 -12 19 C-13.29682374 20.36886951 -14.61823134 21.7169291 -16 23 C-16.99 22.67 -17.98 22.34 -19 22 C-18.38253906 21.33355469 -17.76507812 20.66710937 -17.12890625 19.98046875 C-11.17372701 13.49956592 -5.50361473 6.87287154 0 0 Z " fill="#DBF7F4" transform="translate(791,278)"/>
<path d="M0 0 C-0.14241648 2.35441716 -0.28884808 4.70847484 -0.4375 7.0625 C-0.51871094 8.37347656 -0.59992187 9.68445313 -0.68359375 11.03515625 C-0.97898249 14.73663238 -1.43265388 18.33370448 -2 22 C-3.90608098 18.78817851 -4.22266247 16.46117397 -4.125 12.75 C-4.10695313 11.85796875 -4.08890625 10.9659375 -4.0703125 10.046875 C-4.03550781 9.03367188 -4.03550781 9.03367188 -4 8 C-3.34 8 -2.68 8 -2 8 C-2.66 6.68 -3.32 5.36 -4 4 C-5.65 4 -7.3 4 -9 4 C-9 3.34 -9 2.68 -9 2 C-5.83390538 0.12379578 -3.64167599 -0.09662822 0 0 Z " fill="#49A298" transform="translate(827,205)"/>
<path d="M0 0 C0.66 0 1.32 0 2 0 C1.67 18.48 1.34 36.96 1 56 C0.67 56 0.34 56 0 56 C0 38.51 0 21.02 0 3 C-0.66 2.67 -1.32 2.34 -2 2 C-1.34 1.34 -0.68 0.68 0 0 Z " fill="#121C2B" transform="translate(732,352)"/>
<path d="M0 0 C0 0.33 0 0.66 0 1 C-10.82704462 3.22636903 -20.93253744 4.43496578 -32 4 C-32 3.67 -32 3.34 -32 3 C-31.04287109 2.90912109 -31.04287109 2.90912109 -30.06640625 2.81640625 C-28.82697266 2.69072266 -28.82697266 2.69072266 -27.5625 2.5625 C-26.32693359 2.44068359 -26.32693359 2.44068359 -25.06640625 2.31640625 C-23.01337975 2.21069185 -23.01337975 2.21069185 -22 1 C-19.71195833 0.78933632 -17.41896178 0.63135159 -15.125 0.5 C-1.22900904 -0.29894815 -1.22900904 -0.29894815 0 0 Z " fill="#66AF93" transform="translate(686,358)"/>
<path d="M0 0 C-0.66 1.32 -1.32 2.64 -2 4 C-2.66 4 -3.32 4 -4 4 C-4.33 4.66 -4.66 5.32 -5 6 C-6.99866686 6.34123581 -8.99902542 6.6725678 -11 7 C-12.34259657 7.49646712 -13.67589761 8.01862685 -15 8.5625 C-18.44706815 9.9280693 -21.26108888 10.28041833 -25 10 C-22.87598439 7.87598439 -21.92363724 7.52299061 -19.125 6.6875 C-14.10735278 5.10469746 -9.32934264 3.07745486 -4.50390625 0.98828125 C-2 0 -2 0 0 0 Z " fill="#7EBE9E" transform="translate(694,315)"/>
<path d="M0 0 C0.81404297 0.61488281 0.81404297 0.61488281 1.64453125 1.2421875 C2.35996094 1.78101563 3.07539062 2.31984375 3.8125 2.875 C4.52019531 3.40867187 5.22789062 3.94234375 5.95703125 4.4921875 C7.60456297 5.70814781 9.29624211 6.86416141 11 8 C11 8.66 11 9.32 11 10 C11.99 10 12.98 10 14 10 C14 10.66 14 11.32 14 12 C14.99 11.67 15.98 11.34 17 11 C17 12.32 17 13.64 17 15 C17.66 15.33 18.32 15.66 19 16 C14.92563485 16 13.71530533 14.40750982 10.625 11.8125 C9.68914063 11.03519531 8.75328125 10.25789063 7.7890625 9.45703125 C5.06997398 7.06164374 2.46025604 4.66154972 0 2 C0 1.34 0 0.68 0 0 Z " fill="#449F94" transform="translate(796,279)"/>
<path d="M0 0 C1.65 0 3.3 0 5 0 C2.82236734 2.44503878 1.04149798 3.57281852 -2.0546875 4.60546875 C-2.83457031 4.86650391 -3.61445312 5.12753906 -4.41796875 5.39648438 C-5.22878906 5.65751953 -6.03960938 5.91855469 -6.875 6.1875 C-7.67808594 6.46013672 -8.48117187 6.73277344 -9.30859375 7.01367188 C-13.29837448 8.32497543 -16.74318376 9.38776666 -21 9 C-20.34 8.67 -19.68 8.34 -19 8 C-19 7.34 -19 6.68 -19 6 C-17.906875 5.896875 -16.81375 5.79375 -15.6875 5.6875 C-10.31034816 5.0310434 -5.18821352 3.516408 0 2 C0 1.34 0 0.68 0 0 Z " fill="#52A38E" transform="translate(705,349)"/>
<path d="M0 0 C-1.02480469 0.54269531 -2.04960938 1.08539063 -3.10546875 1.64453125 C-4.46618303 2.36711745 -5.82685804 3.08977762 -7.1875 3.8125 C-7.86103516 4.16892578 -8.53457031 4.52535156 -9.22851562 4.89257812 C-12.88162727 6.83496432 -16.47478512 8.83011045 -20 11 C-20 10.01 -20 9.02 -20 8 C-18.0234375 6.5 -18.0234375 6.5 -15.375 5 C-14.46234375 4.48308594 -13.5496875 3.96617187 -12.609375 3.43359375 C-11.74828125 2.96050781 -10.8871875 2.48742187 -10 2 C-8.88625 1.360625 -7.7725 0.72125 -6.625 0.0625 C-3.70244116 -1.12044048 -2.8959493 -0.89343117 0 0 Z " fill="#7DB894" transform="translate(619,372)"/>
<path d="M0 0 C0.8971875 0.309375 0.8971875 0.309375 1.8125 0.625 C-2.44791226 4.38854036 -6.70598911 8.12381962 -11.1875 11.625 C-11.1875 10.635 -11.1875 9.645 -11.1875 8.625 C-10.5275 8.625 -9.8675 8.625 -9.1875 8.625 C-8.8575 7.305 -8.5275 5.985 -8.1875 4.625 C-7.5275 4.625 -6.8675 4.625 -6.1875 4.625 C-5.8575 3.635 -5.5275 2.645 -5.1875 1.625 C-2.1875 -0.375 -2.1875 -0.375 0 0 Z " fill="#89BE98" transform="translate(597.1875,383.375)"/>
<path d="M0 0 C0.33 0.99 0.66 1.98 1 3 C-0.36328125 4.97265625 -0.36328125 4.97265625 -2.3125 7.0625 C-2.94800781 7.75472656 -3.58351563 8.44695312 -4.23828125 9.16015625 C-5.47750012 10.4543294 -6.73300601 11.73300601 -8 13 C-8.99 12.67 -9.98 12.34 -11 12 C-10.45730469 11.46890625 -9.91460938 10.9378125 -9.35546875 10.390625 C-8.64003906 9.68421875 -7.92460938 8.9778125 -7.1875 8.25 C-6.47980469 7.55390625 -5.77210938 6.8578125 -5.04296875 6.140625 C-3.17724121 4.18571355 -1.56830358 2.19661447 0 0 Z " fill="#DBF7F4" transform="translate(771,301)"/>
<path d="M0 0 C0.33 0 0.66 0 1 0 C1.13277344 1.19238281 1.26554688 2.38476562 1.40234375 3.61328125 C1.58055983 5.17970678 1.75895456 6.74611198 1.9375 8.3125 C2.02451172 9.09818359 2.11152344 9.88386719 2.20117188 10.69335938 C2.28818359 11.45068359 2.37519531 12.20800781 2.46484375 12.98828125 C2.543396 13.68477783 2.62194824 14.38127441 2.70288086 15.09887695 C2.97996783 17.21648234 2.97996783 17.21648234 4 20 C3.0625 22.6875 3.0625 22.6875 2 25 C1.67 25 1.34 25 1 25 C0.67 16.75 0.34 8.5 0 0 Z " fill="#89B291" transform="translate(563,408)"/>
<path d="M0 0 C0 0.66 0 1.32 0 2 C-6.61602194 4.30791463 -12.03751751 5.11800818 -19 5 C-15.90131855 2.93421237 -13.65023694 2.25308642 -10.0625 1.375 C-9.02222656 1.11460937 -7.98195313 0.85421875 -6.91015625 0.5859375 C-4 0 -4 0 0 0 Z " fill="#86C19E" transform="translate(651,329)"/>
<path d="M0 0 C0.66 0.66 1.32 1.32 2 2 C1.81864449 4.76713403 1.5356614 7.3919776 1.125 10.125 C1.02058594 10.87910156 0.91617188 11.63320313 0.80859375 12.41015625 C0.54895402 14.27484156 0.27574971 16.13762887 0 18 C-0.33 18 -0.66 18 -1 18 C-1.99989549 11.40609458 -2.00925164 6.38232875 0 0 Z " fill="#7AAE85" transform="translate(567,398)"/>
<path d="M0 0 C0.66 0.66 1.32 1.32 2 2 C1.63723355 4.82957829 0.90305236 7.29084291 0 10 C-0.99 10.33 -1.98 10.66 -3 11 C-2.53199289 6.94393835 -2.12046792 3.53411321 0 0 Z " fill="#202835" transform="translate(573,431)"/>
<path d="M0 0 C-1.48985569 3.79235994 -3.58658047 5.80565887 -7 8 C-9.3125 7.75 -9.3125 7.75 -11 7 C-10.34 7 -9.68 7 -9 7 C-9 6.34 -9 5.68 -9 5 C-6.60721256 2.12865507 -3.83673401 0 0 0 Z " fill="#419E8E" transform="translate(750,322)"/>
<path d="M0 0 C0.33 0.66 0.66 1.32 1 2 C-3.18461538 8.64615385 -3.18461538 8.64615385 -7.3125 10.4375 C-8.6428125 10.7159375 -8.6428125 10.7159375 -10 11 C-6.79239749 7.19364503 -3.59253891 3.45436433 0 0 Z " fill="#CEF0EC" transform="translate(757,316)"/>
<path d="M0 0 C0 0.33 0 0.66 0 1 C-11.52164009 4.25968109 -11.52164009 4.25968109 -17 5 C-17 4.34 -17 3.68 -17 3 C-11.17745757 1.03181664 -6.16618181 -0.40214229 0 0 Z " fill="#D7F6ED" transform="translate(756,224)"/>
<path d="M0 0 C-0.66 1.32 -1.32 2.64 -2 4 C-2.66 4 -3.32 4 -4 4 C-4.33 4.66 -4.66 5.32 -5 6 C-6.65 6 -8.3 6 -10 6 C-4.4 0 -4.4 0 0 0 Z " fill="#72B998" transform="translate(694,315)"/>
<path d="M0 0 C0.66 0.66 1.32 1.32 2 2 C-0.38957269 5.24299151 -2.2047869 7.50902342 -6 9 C-4.47291037 5.56404834 -2.40072955 2.88087546 0 0 Z " fill="#2EA18F" transform="translate(776,263)"/>
<path d="M0 0 C0.33 0.99 0.66 1.98 1 3 C-1.31 5.31 -3.62 7.62 -6 10 C-6.66 9.67 -7.32 9.34 -8 9 C-5.36 6.03 -2.72 3.06 0 0 Z " fill="#69B499" transform="translate(753,258)"/>
<path d="M0 0 C0 0.66 0 1.32 0 2 C-2.64 2.99 -5.28 3.98 -8 5 C-8.33 4.01 -8.66 3.02 -9 2 C-3.375 0 -3.375 0 0 0 Z " fill="#61B39D" transform="translate(779,218)"/>
<path d="M0 0 C-0.375 1.9375 -0.375 1.9375 -1 4 C-3.70879335 5.35439668 -6.00933268 5.06501451 -9 5 C-2.87096774 0 -2.87096774 0 0 0 Z " fill="#202A35" transform="translate(618,386)"/>
<path d="M0 0 C0.99 0.33 1.98 0.66 3 1 C0.69 3.31 -1.62 5.62 -4 8 C-4.33 7.01 -4.66 6.02 -5 5 C-3.35 3.35 -1.7 1.7 0 0 Z " fill="#7DBB93" transform="translate(595,354)"/>
<path d="M0 0 C2.31 0 4.62 0 7 0 C4.45543849 2.96865509 1.51005335 4.3619751 -2 6 C-1.34 4.02 -0.68 2.04 0 0 Z " fill="#0F2C2F" transform="translate(608,340)"/>
<path d="M0 0 C0.66 0.33 1.32 0.66 2 1 C2 1.66 2 2.32 2 3 C-1.465 4.485 -1.465 4.485 -5 6 C-5.33 5.01 -5.66 4.02 -6 3 C-4.03533587 1.93224776 -2.03144641 0.93446535 0 0 Z " fill="#1D2735" transform="translate(685,302)"/>
<path d="M0 0 C-1 1 -1 1 -3.50390625 1.09765625 C-5.01791016 1.08025391 -5.01791016 1.08025391 -6.5625 1.0625 C-7.57441406 1.05347656 -8.58632813 1.04445312 -9.62890625 1.03515625 C-10.41136719 1.02355469 -11.19382812 1.01195312 -12 1 C-4.57203842 -2.77588047 -4.57203842 -2.77588047 0 0 Z " fill="#4FAB99" transform="translate(810,212)"/>
<path d="M0 0 C0 0.66 0 1.32 0 2 C-5.41538462 3.23076923 -5.41538462 3.23076923 -8.375 2.0625 C-8.91125 1.711875 -9.4475 1.36125 -10 1 C-8.71073008 0.63720544 -7.41846728 0.28503302 -6.125 -0.0625 C-5.40570312 -0.25972656 -4.68640625 -0.45695312 -3.9453125 -0.66015625 C-2 -1 -2 -1 0 0 Z " fill="#212A3A" transform="translate(673,309)"/>
<path d="M0 0 C0.99 0.33 1.98 0.66 3 1 C1.35 2.98 -0.3 4.96 -2 7 C-2.66 6.67 -3.32 6.34 -4 6 C-4 5.34 -4 4.68 -4 4 C-3.34 4 -2.68 4 -2 4 C-2 3.34 -2 2.68 -2 2 C-1.34 2 -0.68 2 0 2 C0 1.34 0 0.68 0 0 Z " fill="#1D2633" transform="translate(715,278)"/>
<path d="M0 0 C0.66 0 1.32 0 2 0 C1.52797514 4.24822374 -0.96655518 6.19989709 -4 9 C-4 5 -4 5 -2.5625 3.375 C-2.046875 2.92125 -1.53125 2.4675 -1 2 C-0.67 1.34 -0.34 0.68 0 0 Z " fill="#0E282A" transform="translate(587,358)"/>
<path d="M0 0 C2.64 1.98 5.28 3.96 8 6 C7.67 6.99 7.34 7.98 7 9 C5.82737096 7.88121617 4.66204862 6.75476949 3.5 5.625 C2.8503125 4.99851562 2.200625 4.37203125 1.53125 3.7265625 C0 2 0 2 0 0 Z " fill="#51A398" transform="translate(796,279)"/>
<path d="M0 0 C0.66 0.33 1.32 0.66 2 1 C-3.17578125 4.22265625 -3.17578125 4.22265625 -5 5 C-5.99 4.67 -6.98 4.34 -8 4 C-6.71349294 3.30289269 -5.42059335 2.61757124 -4.125 1.9375 C-3.40570312 1.55464844 -2.68640625 1.17179687 -1.9453125 0.77734375 C-1.30335938 0.52082031 -0.66140625 0.26429688 0 0 Z " fill="#8EC3A0" transform="translate(629,334)"/>
<path d="M0 0 C0.33 1.32 0.66 2.64 1 4 C-0.9375 6.25 -0.9375 6.25 -3 8 C-3.66 7.67 -4.32 7.34 -5 7 C-3.35 4.69 -1.7 2.38 0 0 Z " fill="#222B35" transform="translate(586,410)"/>
<path d="M0 0 C0 0.99 0 1.98 0 3 C-2.97 2.67 -5.94 2.34 -9 2 C-9 1.67 -9 1.34 -9 1 C-5.94152152 0.45627049 -3.11227195 0 0 0 Z " fill="#2B323F" transform="translate(647,377)"/>
<path d="M0 0 C0.99 0.33 1.98 0.66 3 1 C-0.465 3.97 -0.465 3.97 -4 7 C-3.67 5.68 -3.34 4.36 -3 3 C-2.01 2.67 -1.02 2.34 0 2 C0 1.34 0 0.68 0 0 Z " fill="#D7F5EA" transform="translate(715,296)"/>
<path d="M0 0 C0.66 0.33 1.32 0.66 2 1 C2 1.66 2 2.32 2 3 C0.02 3.99 -1.96 4.98 -4 6 C-3.6875 4.125 -3.6875 4.125 -3 2 C-2.01 1.34 -1.02 0.68 0 0 Z " fill="#242D3B" transform="translate(692,298)"/>
<path d="M0 0 C-0.33 0.99 -0.66 1.98 -1 3 C-3.64 3 -6.28 3 -9 3 C-4.5 0 -4.5 0 0 0 Z " fill="#70B9A1" transform="translate(751,226)"/>
</svg>
